<svg width="20" height="20" viewBox="0 0 20 20" fill="none" xmlns="http://www.w3.org/2000/svg">
<g filter="url(#filter0_iiii_302_10)">
<rect width="19.2" height="19.2" rx="2.4" fill="url(#paint0_linear_302_10)"/>
<rect width="19.2" height="19.2" rx="2.4" fill="#E13903" fill-opacity="0.25"/>
</g>
<rect x="0.3" y="0.3" width="18.6" height="18.6" rx="2.1" stroke="white" stroke-width="0.6"/>
<path d="M9 12.5H7C6.30833 12.5 5.71875 12.2563 5.23125 11.7688C4.74375 11.2813 4.5 10.6917 4.5 10C4.5 9.30833 4.74375 8.71875 5.23125 8.23125C5.71875 7.74375 6.30833 7.5 7 7.5H9V8.5H7C6.58333 8.5 6.22917 8.64583 5.9375 8.9375C5.64583 9.22917 5.5 9.58333 5.5 10C5.5 10.4167 5.64583 10.7708 5.9375 11.0625C6.22917 11.3542 6.58333 11.5 7 11.5H9V12.5ZM7.5 10.5V9.5H11.5V10.5H7.5ZM10 12.5V11.5H12C12.4167 11.5 12.7708 11.3542 13.0625 11.0625C13.3542 10.7708 13.5 10.4167 13.5 10C13.5 9.58333 13.3542 9.22917 13.0625 8.9375C12.7708 8.64583 12.4167 8.5 12 8.5H10V7.5H12C12.6917 7.5 13.2813 7.74375 13.7688 8.23125C14.2563 8.71875 14.5 9.30833 14.5 10C14.5 10.6917 14.2563 11.2813 13.7688 11.7688C13.2813 12.2563 12.6917 12.5 12 12.5H10Z" fill="white"/>
<defs>
<filter id="filter0_iiii_302_10" x="-2.4" y="-4.8" width="21.6" height="24" filterUnits="userSpaceOnUse" colorInterpolationFilters="sRGB">
<feFlood floodOpacity="0" result="BackgroundImageFix"/>
<feBlend mode="normal" in="SourceGraphic" in2="BackgroundImageFix" result="shape"/>
<feColorMatrix in="SourceAlpha" type="matrix" values="0 0 0 0 0 0 0 0 0 0 0 0 0 0 0 0 0 0 127 0" result="hardAlpha"/>
<feOffset dx="-1.2" dy="-1.2"/>
<feComposite in2="hardAlpha" operator="arithmetic" k2="-1" k3="1"/>
<feColorMatrix type="matrix" values="0 0 0 0 0.811765 0 0 0 0 0.184314 0 0 0 0 0.00392157 0 0 0 1 0"/>
<feBlend mode="normal" in2="shape" result="effect1_innerShadow_302_10"/>
<feColorMatrix in="SourceAlpha" type="matrix" values="0 0 0 0 0 0 0 0 0 0 0 0 0 0 0 0 0 0 127 0" result="hardAlpha"/>
<feOffset dx="1.2" dy="1.2"/>
<feComposite in2="hardAlpha" operator="arithmetic" k2="-1" k3="1"/>
<feColorMatrix type="matrix" values="0 0 0 0 0 0 0 0 0 0 0 0 0 0 0 0 0 0 0.2 0"/>
<feBlend mode="normal" in2="effect1_innerShadow_302_10" result="effect2_innerShadow_302_10"/>
<feColorMatrix in="SourceAlpha" type="matrix" values="0 0 0 0 0 0 0 0 0 0 0 0 0 0 0 0 0 0 127 0" result="hardAlpha"/>
<feOffset dx="-2.4" dy="-4.8"/>
<feGaussianBlur stdDeviation="2.4"/>
<feComposite in2="hardAlpha" operator="arithmetic" k2="-1" k3="1"/>
<feColorMatrix type="matrix" values="0 0 0 0 0.843137 0 0 0 0 0.254902 0 0 0 0 0.0823529 0 0 0 0.5 0"/>
<feBlend mode="normal" in2="effect2_innerShadow_302_10" result="effect3_innerShadow_302_10"/>
<feColorMatrix in="SourceAlpha" type="matrix" values="0 0 0 0 0 0 0 0 0 0 0 0 0 0 0 0 0 0 127 0" result="hardAlpha"/>
<feOffset dx="-2.4" dy="-2.4"/>
<feGaussianBlur stdDeviation="1.2"/>
<feComposite in2="hardAlpha" operator="arithmetic" k2="-1" k3="1"/>
<feColorMatrix type="matrix" values="0 0 0 0 0 0 0 0 0 0 0 0 0 0 0 0 0 0 0.18 0"/>
<feBlend mode="normal" in2="effect3_innerShadow_302_10" result="effect4_innerShadow_302_10"/>
</filter>
<linearGradient id="paint0_linear_302_10" x1="2.4" y1="2.4" x2="16.8" y2="17.4" gradientUnits="userSpaceOnUse">
<stop stop-color="#DE836D"/>
<stop offset="1" stop-color="#FF4000"/>
</linearGradient>
</defs>
</svg>
